<svg width="48" height="48" viewBox="0 0 48 48" fill="none" xmlns="http://www.w3.org/2000/svg">
<g clip-path="url(#clip0_1_4)">
<path d="M48 24.147C48 10.8106 37.2553 0 24.003 0C10.7447 0.00299963 0 10.8106 0 24.15C0 36.1995 8.7769 46.1882 20.2475 48V31.1271H14.1582V24.15H20.2535V18.8256C20.2535 12.7754 23.838 9.43382 29.3183 9.43382C31.946 9.43382 34.6907 9.90476 34.6907 9.90476V15.844H31.664C28.6854 15.844 27.7555 17.7068 27.7555 19.6175V24.147H34.4087L33.3468 31.1241H27.7525V47.997C39.2231 46.1852 48 36.1965 48 24.147Z" fill="black"/>
</g>
<defs>
<clipPath id="clip0_1_4">
<rect width="48" height="48" fill="white"/>
</clipPath>
</defs>
</svg>
