<svg width="48" height="48" viewBox="0 0 48 48" fill="none" xmlns="http://www.w3.org/2000/svg">
<path d="M35.4732 0H12.4683C5.61951 0 0 5.44153 0 12.2005V35.7995C0 42.5012 5.56098 48 12.4683 48H35.5317C42.3805 48 48 42.5585 48 35.7995V12.1432C47.9415 5.44153 42.3805 0 35.4732 0ZM39.6293 39.8664H30.6146C30.5561 39.8664 30.4976 39.8663 30.4976 39.8091L22.0683 27.8377H22.0098C18.6146 31.6754 15.278 35.4558 12 39.179C11.8244 39.4081 11.5902 39.58 11.4146 39.7518C11.3561 39.8091 11.2976 39.8091 11.239 39.8091H8.78049C8.72195 39.8091 8.66341 39.8091 8.72195 39.7518L20.722 26.1193C20.7805 26.0621 20.7805 26.0048 20.722 25.9475L8.78049 8.93556V8.87828H17.8537C17.9122 8.87828 17.9122 8.87828 17.9707 8.93556L25.9317 20.2196C25.9317 20.2196 25.9317 20.2196 25.9902 20.2196L35.8829 8.93556C35.9415 8.87828 36 8.87828 36.0585 8.87828H38.5171C38.6341 8.87828 38.6341 8.93556 38.5756 8.99284L27.2195 21.8807C27.161 21.9379 27.161 21.9952 27.2195 22.0525L39.6878 39.8091C39.6878 39.8091 39.6878 39.8664 39.6293 39.8664Z" fill="black"/>
<path d="M16.8 10.9403H12.878C12.8195 10.9403 12.8195 10.9976 12.8195 11.0549L31.6683 37.8043C31.6683 37.8043 31.6683 37.8043 31.7268 37.8043H35.5902C35.6488 37.8043 35.6488 37.747 35.6488 37.6897L16.8 10.9403Z" fill="black"/>
</svg>
