<svg width="48" height="48" viewBox="0 0 48 48" fill="none" xmlns="http://www.w3.org/2000/svg">
<path d="M2.17994 33.3188C2.16945 35.2376 2.5918 37.1394 3.42289 38.9156C4.25397 40.6918 5.47751 42.3077 7.02365 43.671C8.56978 45.0342 10.4082 46.1182 12.434 46.8609C14.4598 47.6037 16.6333 47.9907 18.8304 47.9998C21.0274 48.009 23.205 47.6401 25.2389 46.9143C27.2727 46.1885 29.1229 45.1199 30.6839 43.7696C32.2449 42.4193 33.486 40.8137 34.3365 39.0445C35.187 37.2753 35.6301 35.3771 35.6406 33.4584L35.7319 17.1029L38.1056 18.2391C41.1428 19.6802 44.5435 20.4372 48 20.4418V12.7475C44.746 12.7107 41.6404 11.5525 39.3597 9.52519C37.079 7.49787 35.8078 4.76564 35.8232 1.92358H27.0129L26.8417 33.4584C26.8305 34.8275 26.3548 36.163 25.475 37.2961C24.5951 38.4293 23.3504 39.3093 21.8982 39.8251C20.446 40.3408 18.8513 40.4692 17.3156 40.1939C15.7799 39.9185 14.3721 39.252 13.2699 38.2783C12.1678 37.3046 11.4207 36.0675 11.1232 34.7232C10.8256 33.379 10.9908 31.9879 11.598 30.7256C12.2052 29.4633 13.2272 28.3865 14.5347 27.6311C15.8423 26.8758 17.3768 26.4758 18.9445 26.4816V18.7973C14.5201 18.7919 10.2731 20.3163 7.13174 23.0374C3.99038 25.7585 2.21009 29.4549 2.17994 33.3188Z" fill="#E71D40"/>
<path d="M0.000218959 31.3853C-0.0110211 33.304 0.410591 35.206 1.24098 36.9824C2.07138 38.7589 3.29429 40.3752 4.83989 41.7389C7.96138 44.493 12.2078 46.0514 16.6449 46.0713C21.0821 46.0911 25.3465 44.5707 28.5001 41.8446C31.6537 39.1185 33.4381 35.4099 33.4608 31.5348L33.5407 15.1793L35.9487 16.3156C38.9895 17.7567 42.3948 18.5105 45.8545 18.5082V10.8239C42.5945 10.7949 39.4802 9.64021 37.1921 7.61204C34.904 5.58387 33.6282 2.84717 33.6434 -7.62939e-06H24.8332L24.6506 31.5348C24.6393 32.9043 24.1634 34.2402 23.283 35.3736C22.4026 36.507 21.1573 37.387 19.7044 37.9024C18.2515 38.4179 16.6562 38.5456 15.1202 38.2695C13.5842 37.9933 12.1764 37.3258 11.0747 36.3511C9.97306 35.3764 9.22693 34.1384 8.93066 32.7935C8.6344 31.4486 8.80128 30.0571 9.41023 28.795C10.0192 27.5329 11.0429 26.4568 12.3519 25.7027C13.6609 24.9485 15.1966 24.5502 16.7648 24.5581V16.8737C12.3423 16.8683 8.09704 18.3914 4.95602 21.1103C1.81499 23.8292 0.0333757 27.5231 0.000218959 31.3853Z" fill="#40D8FF"/>
<path d="M45.8659 18.5082V12.5282C42.8822 12.0469 40.2031 10.6288 38.3339 8.54149C35.9327 6.90043 34.3077 4.54453 33.769 1.92358H26.9217L26.7505 33.4584C26.7453 34.9451 26.1918 36.3908 25.172 37.5812C24.1522 38.7716 22.7204 39.6433 21.0887 40.0673C19.4571 40.4912 17.7125 40.4447 16.1134 39.9347C14.5144 39.4246 13.1461 38.4783 12.2113 37.2358C10.7994 36.4071 9.73049 35.2034 9.16285 33.8029C8.5952 32.4023 8.55898 30.8794 9.05953 29.4595C9.56008 28.0396 10.5708 26.7982 11.9421 25.919C13.3134 25.0399 14.9724 24.5696 16.6735 24.578V18.9268C13.7058 19.2544 10.8931 20.2712 8.52868 21.8714C6.16426 23.4716 4.3347 25.5965 3.23081 28.0245C2.12692 30.4525 1.78912 33.0947 2.25264 35.6755C2.71616 38.2563 3.96403 40.6813 5.86611 42.6975C8.29956 44.5179 11.2807 45.6892 14.4547 46.072C17.6286 46.4549 20.8617 46.0332 23.769 44.8571C26.6764 43.681 29.1355 41.8001 30.8538 39.4382C32.572 37.0763 33.4769 34.333 33.4609 31.5348L33.5407 15.1793L35.9487 16.3156C38.9929 17.7583 42.4024 18.5121 45.8659 18.5082Z" fill="#1C1C1C"/>
</svg>
