<svg width="48" height="48" viewBox="0 0 48 48" fill="none" xmlns="http://www.w3.org/2000/svg">
<path d="M16.0014 23.9998C16.0014 22.4175 16.4706 20.8708 17.3498 19.5552C18.2289 18.2397 19.4784 17.2143 20.9404 16.6088C22.4023 16.0033 24.011 15.8449 25.563 16.1536C27.115 16.4622 28.5406 17.2242 29.6595 18.343C30.7784 19.4618 31.5404 20.8872 31.8491 22.4391C32.1578 23.9909 31.9994 25.5994 31.3938 27.0612C30.7883 28.523 29.7628 29.7724 28.4471 30.6515C27.1314 31.5305 25.5845 31.9997 24.0021 31.9997C21.8802 31.9997 19.8452 31.1568 18.3448 29.6566C16.8443 28.1563 16.0014 26.1215 16.0014 23.9998ZM11.6759 23.9998C11.6759 26.4371 12.3987 28.8197 13.7529 30.8463C15.1071 32.8728 17.0319 34.4524 19.2839 35.3852C21.5359 36.318 24.0139 36.5621 26.4046 36.0867C28.7954 35.6113 30.9915 34.4377 32.7152 32.7144C34.4389 30.991 35.6129 28.7953 36.0886 26.4049C36.5643 24.0144 36.3204 21.5366 35.3878 19.2847C34.4552 17.0328 32.8757 15.108 30.8491 13.7537C28.8224 12.3994 26.4397 11.6764 24.0021 11.6761C22.3836 11.6761 20.7809 11.9948 19.2855 12.6141C17.7902 13.2334 16.4315 14.1411 15.287 15.2855C14.1425 16.4299 13.2347 17.7884 12.6153 19.2836C11.996 20.7788 11.6772 22.3814 11.6773 23.9998M33.9324 11.1877C33.9322 11.7573 34.101 12.3141 34.4173 12.7878C34.7336 13.2616 35.1833 13.6308 35.7096 13.849C36.2358 14.0671 36.8149 14.1244 37.3736 14.0134C37.9324 13.9025 38.4457 13.6283 38.8486 13.2257C39.2516 12.8231 39.5261 12.31 39.6374 11.7514C39.7487 11.1927 39.6919 10.6137 39.474 10.0873C39.2562 9.56103 38.8872 9.11112 38.4136 8.79451C37.9401 8.4779 37.3833 8.30881 36.8136 8.30862C36.05 8.309 35.3177 8.61241 34.7777 9.15223C34.2377 9.69204 33.934 10.4241 33.9333 11.1877M14.3071 43.5351C12.785 43.5177 11.2772 43.2385 9.84981 42.7097C8.80731 42.3244 7.86408 41.711 7.0891 40.9144C6.29122 40.1412 5.67758 39.1984 5.29364 38.1559C4.7639 36.7288 4.48402 35.2211 4.46628 33.699C4.35003 31.1691 4.32509 30.4091 4.32509 24.0002C4.32509 17.5914 4.35003 16.8332 4.46628 14.3015C4.4854 12.7797 4.76458 11.2723 5.29176 9.84461C5.6771 8.80221 6.29053 7.85908 7.08721 7.08417C7.86085 6.28592 8.80447 5.67229 9.84793 5.28889C11.2758 4.75947 12.7843 4.48009 14.3071 4.46302C16.8373 4.34678 17.5973 4.32184 24.0021 4.32184C30.4069 4.32184 31.1698 4.34678 33.7018 4.46302C35.2238 4.48212 36.7313 4.76128 38.1591 5.28842C39.202 5.67301 40.1454 6.28647 40.9198 7.0837C41.7171 7.8581 42.3307 8.80138 42.7153 9.84414C43.2444 11.2713 43.5236 12.779 43.5408 14.301C43.657 16.8328 43.682 17.5909 43.682 23.9998C43.682 30.4086 43.6589 31.1668 43.5408 33.6985C43.5224 35.2204 43.2432 36.7279 42.7153 38.1554C42.3159 39.1904 41.7041 40.1303 40.9194 40.9146C40.1347 41.6989 39.1944 42.3103 38.1591 42.7092C36.7318 43.2383 35.224 43.5175 33.7018 43.5346C31.1717 43.6509 30.4116 43.6758 24.0021 43.6758C17.5926 43.6758 16.8344 43.6532 14.3071 43.5351ZM14.1067 0.14541C12.1156 0.184796 10.1457 0.561752 8.28073 1.26022C6.67899 1.86288 5.22792 2.80747 4.02859 4.0282C2.80649 5.22628 1.86147 6.67732 1.25988 8.27945C0.561506 10.1444 0.184674 12.1143 0.145425 14.1053C0.0272965 16.6643 0 17.4822 0 23.9998C0 30.5173 0.0272965 31.3352 0.145425 33.8943C0.18486 35.8851 0.561851 37.8549 1.26035 39.7196C1.86192 41.3218 2.80676 42.7729 4.02859 43.9713C5.22832 45.1915 6.67906 46.1361 8.28026 46.7398C10.1453 47.438 12.1152 47.8149 14.1062 47.8546C16.6669 47.9708 17.4834 48 24.0016 48C30.5199 48 31.3378 47.9727 33.8971 47.8546C35.8882 47.8152 37.8581 47.4382 39.723 46.7398C41.3178 46.1233 42.7662 45.1803 43.9752 43.9714C45.1843 42.7625 46.1273 41.3143 46.7439 39.7196C47.4433 37.8551 47.8203 35.8852 47.8588 33.8943C47.9751 31.3333 48 30.5173 48 23.9998C48 17.4822 47.9727 16.6643 47.8588 14.1053C47.8195 12.1144 47.4425 10.1446 46.7439 8.27992C46.1403 6.67878 45.1957 5.22803 43.9756 4.0282C42.7776 2.80688 41.3272 1.86204 39.7259 1.25975C37.8609 0.560923 35.8907 0.18411 33.8995 0.14541C31.3406 0.0291762 30.5222 0 24.0021 0C17.482 0 16.665 0.0272938 14.1048 0.14541" fill="url(#paint0_radial_1_30)"/>
<path d="M16.0014 23.9998C16.0014 22.4175 16.4706 20.8708 17.3498 19.5552C18.2289 18.2397 19.4784 17.2143 20.9404 16.6088C22.4023 16.0033 24.011 15.8449 25.563 16.1536C27.115 16.4622 28.5406 17.2242 29.6595 18.343C30.7784 19.4618 31.5404 20.8872 31.8491 22.4391C32.1578 23.9909 31.9994 25.5994 31.3938 27.0612C30.7883 28.523 29.7628 29.7724 28.4471 30.6515C27.1314 31.5305 25.5845 31.9997 24.0021 31.9997C21.8802 31.9997 19.8452 31.1568 18.3448 29.6566C16.8443 28.1563 16.0014 26.1215 16.0014 23.9998ZM11.6759 23.9998C11.6759 26.4371 12.3987 28.8197 13.7529 30.8463C15.1071 32.8728 17.0319 34.4524 19.2839 35.3852C21.5359 36.318 24.0139 36.5621 26.4046 36.0867C28.7954 35.6113 30.9915 34.4377 32.7152 32.7144C34.4389 30.991 35.6129 28.7953 36.0886 26.4049C36.5643 24.0144 36.3204 21.5366 35.3878 19.2847C34.4552 17.0328 32.8757 15.108 30.8491 13.7537C28.8224 12.3994 26.4397 11.6764 24.0021 11.6761C22.3836 11.6761 20.7809 11.9948 19.2855 12.6141C17.7902 13.2334 16.4315 14.1411 15.287 15.2855C14.1425 16.4299 13.2347 17.7884 12.6153 19.2836C11.996 20.7788 11.6772 22.3814 11.6773 23.9998M33.9324 11.1877C33.9322 11.7573 34.101 12.3141 34.4173 12.7878C34.7336 13.2616 35.1833 13.6308 35.7096 13.849C36.2358 14.0671 36.8149 14.1244 37.3736 14.0134C37.9324 13.9025 38.4457 13.6283 38.8486 13.2257C39.2516 12.8231 39.5261 12.31 39.6374 11.7514C39.7487 11.1927 39.6919 10.6137 39.474 10.0873C39.2562 9.56103 38.8872 9.11112 38.4136 8.79451C37.9401 8.4779 37.3833 8.30881 36.8136 8.30862C36.05 8.309 35.3177 8.61241 34.7777 9.15223C34.2377 9.69204 33.934 10.4241 33.9333 11.1877M14.3071 43.5351C12.785 43.5177 11.2772 43.2385 9.84981 42.7097C8.80731 42.3244 7.86408 41.711 7.0891 40.9144C6.29122 40.1412 5.67758 39.1984 5.29364 38.1559C4.7639 36.7288 4.48402 35.2211 4.46628 33.699C4.35003 31.1691 4.32509 30.4091 4.32509 24.0002C4.32509 17.5914 4.35003 16.8332 4.46628 14.3015C4.4854 12.7797 4.76458 11.2723 5.29176 9.84461C5.6771 8.80221 6.29053 7.85908 7.08721 7.08417C7.86085 6.28592 8.80447 5.67229 9.84793 5.28889C11.2758 4.75947 12.7843 4.48009 14.3071 4.46302C16.8373 4.34678 17.5973 4.32184 24.0021 4.32184C30.4069 4.32184 31.1698 4.34678 33.7018 4.46302C35.2238 4.48212 36.7313 4.76128 38.1591 5.28842C39.202 5.67301 40.1454 6.28647 40.9198 7.0837C41.7171 7.8581 42.3307 8.80138 42.7153 9.84414C43.2444 11.2713 43.5236 12.779 43.5408 14.301C43.657 16.8328 43.682 17.5909 43.682 23.9998C43.682 30.4086 43.6589 31.1668 43.5408 33.6985C43.5224 35.2204 43.2432 36.7279 42.7153 38.1554C42.3159 39.1904 41.7041 40.1303 40.9194 40.9146C40.1347 41.6989 39.1944 42.3103 38.1591 42.7092C36.7318 43.2383 35.224 43.5175 33.7018 43.5346C31.1717 43.6509 30.4116 43.6758 24.0021 43.6758C17.5926 43.6758 16.8344 43.6532 14.3071 43.5351ZM14.1067 0.14541C12.1156 0.184796 10.1457 0.561752 8.28073 1.26022C6.67899 1.86288 5.22792 2.80747 4.02859 4.0282C2.80649 5.22628 1.86147 6.67732 1.25988 8.27945C0.561506 10.1444 0.184674 12.1143 0.145425 14.1053C0.0272965 16.6643 0 17.4822 0 23.9998C0 30.5173 0.0272965 31.3352 0.145425 33.8943C0.18486 35.8851 0.561851 37.8549 1.26035 39.7196C1.86192 41.3218 2.80676 42.7729 4.02859 43.9713C5.22832 45.1915 6.67906 46.1361 8.28026 46.7398C10.1453 47.438 12.1152 47.8149 14.1062 47.8546C16.6669 47.9708 17.4834 48 24.0016 48C30.5199 48 31.3378 47.9727 33.8971 47.8546C35.8882 47.8152 37.8581 47.4382 39.723 46.7398C41.3178 46.1233 42.7662 45.1803 43.9752 43.9714C45.1843 42.7625 46.1273 41.3143 46.7439 39.7196C47.4433 37.8551 47.8203 35.8852 47.8588 33.8943C47.9751 31.3333 48 30.5173 48 23.9998C48 17.4822 47.9727 16.6643 47.8588 14.1053C47.8195 12.1144 47.4425 10.1446 46.7439 8.27992C46.1403 6.67878 45.1957 5.22803 43.9756 4.0282C42.7776 2.80688 41.3272 1.86204 39.7259 1.25975C37.8609 0.560923 35.8907 0.18411 33.8995 0.14541C31.3406 0.0291762 30.5222 0 24.0021 0C17.482 0 16.665 0.0272938 14.1048 0.14541" fill="url(#paint1_radial_1_30)"/>
<defs>
<radialGradient id="paint0_radial_1_30" cx="0" cy="0" r="1" gradientUnits="userSpaceOnUse" gradientTransform="translate(6.37751 48.2263) scale(62.6629 62.6568)">
<stop offset="0.09" stop-color="#FA8F21"/>
<stop offset="0.78" stop-color="#D82D7E"/>
</radialGradient>
<radialGradient id="paint1_radial_1_30" cx="0" cy="0" r="1" gradientUnits="userSpaceOnUse" gradientTransform="translate(29.1127 50.3764) scale(49.3869 49.3821)">
<stop offset="0.64" stop-color="#8C3AAA" stop-opacity="0"/>
<stop offset="1" stop-color="#8C3AAA"/>
</radialGradient>
</defs>
</svg>
