<svg width="48" height="48" viewBox="0 0 48 48" fill="none" xmlns="http://www.w3.org/2000/svg">
<path fill-rule="evenodd" clip-rule="evenodd" d="M41.0066 6.97545C36.4944 2.47968 30.4935 0.00252692 24.1002 0C10.927 0 0.205666 10.6693 0.200394 23.7836C0.198636 27.9756 1.29921 32.0677 3.39055 35.6745L0 48L12.6697 44.6925C16.1604 46.5873 20.0907 47.5859 24.0907 47.5876H24.1005C37.2723 47.5876 47.9947 36.9169 48 23.8026C48.0025 17.4472 45.5189 11.4712 41.0066 6.97545ZM24.1005 43.5704H24.0924C20.528 43.569 17.0318 42.6161 13.982 40.8148L13.2566 40.3863L5.73833 42.3491L7.74513 35.054L7.27275 34.3061C5.2843 31.1584 4.23404 27.5204 4.2356 23.7851C4.23996 12.885 13.1512 4.01715 24.1084 4.01715C29.4141 4.01916 34.4017 6.0782 38.1521 9.81493C41.9026 13.5517 43.9669 18.5187 43.9649 23.801C43.9603 34.7019 35.0492 43.5704 24.1005 43.5704ZM34.9965 28.7643C34.3993 28.4669 31.4634 27.0291 30.916 26.8307C30.3686 26.6324 29.9706 26.5333 29.5724 27.1283C29.1743 27.7232 28.0299 29.0619 27.6814 29.4585C27.3332 29.8551 26.9848 29.9048 26.3876 29.6072C25.7905 29.3098 23.8663 28.6822 21.5853 26.6575C19.8102 25.0817 18.6116 23.1353 18.2632 22.5404C17.9149 21.9454 18.2262 21.6237 18.5251 21.3275C18.7937 21.0612 19.1223 20.6334 19.4209 20.2863C19.7194 19.9392 19.8189 19.6913 20.018 19.2948C20.2171 18.8981 20.1175 18.551 19.9682 18.2535C19.8189 17.9561 18.6247 15.0308 18.127 13.8409C17.6423 12.682 17.15 12.8388 16.7834 12.8207C16.4355 12.8034 16.037 12.7997 15.6389 12.7997C15.2408 12.7997 14.5939 12.9485 14.0464 13.5434C13.4991 14.1384 11.9565 15.5762 11.9565 18.5014C11.9565 21.4266 14.0962 24.2526 14.3948 24.6493C14.6934 25.046 18.6057 31.0489 24.5962 33.6232C26.0209 34.2355 27.1333 34.6011 28.0005 34.8752C29.4311 35.3274 30.7329 35.2636 31.7619 35.1106C32.9092 34.94 35.295 33.6728 35.7927 32.2846C36.2903 30.8963 36.2903 29.7064 36.141 29.4585C35.9918 29.2106 35.5937 29.0619 34.9965 28.7643Z" fill="black"/>
</svg>
